<svg id="Layer_1" enable-background="new 0 0 512 512" height="512" viewBox="0 0 512 512" width="512" xmlns="http://www.w3.org/2000/svg"><path d="m255.9 80.4c-75.2 0-185.3 43.5-185.3 149.9 0 116 119.6 143.4 160 151.7 23.4 4.8-11.4 53.5 16.3 49.3 26.3-4 174.6-92.9 192.4-185.6 17.5-90.8-76.8-165.3-183.4-165.3zm-69.7 194.6c-1.4 1.4-3.4 2.1-6.1 2.1h-35.1c-3.5 0-6.1-.9-7.6-2.7s-2.3-4.7-2.3-8.7v-70.8c0-3.8.7-6.6 2.2-8.5s3.4-2.8 5.8-2.8 4.4.9 5.9 2.8 2.3 4.7 2.3 8.5v66.9h29c2.6 0 4.6.7 6 2.2s2.1 3.3 2.1 5.5c-.1 2.3-.8 4.1-2.2 5.5zm33.5-7.7c0 3.8-.8 6.7-2.3 8.5-1.5 1.9-3.5 2.8-5.9 2.8-2.3 0-4.2-1-5.8-2.9-1.5-1.9-2.3-4.7-2.3-8.5v-72.5c0-3.8.7-6.6 2.2-8.5s3.4-2.8 5.8-2.8 4.4.9 5.9 2.8 2.3 4.7 2.3 8.5v72.6zm85.3-.7c0 8.1-2.9 12.1-8.7 12.1-1.5 0-2.8-.2-3.9-.7-1.2-.5-2.3-1.2-3.3-2.3-1-1-2-2.3-2.8-3.7-.9-1.4-1.7-2.8-2.6-4.3l-30.4-53.6v53.9c0 3.5-.7 6.2-2.1 8s-3.2 2.7-5.5 2.7-4.1-.9-5.5-2.7-2.1-4.5-2.1-7.9v-70.9c0-3 .3-5.4.9-7.1.7-1.9 1.8-3.4 3.4-4.6s3.3-1.8 5.2-1.8c1.5 0 2.7.3 3.7.8s1.9 1.3 2.7 2.2 1.6 2.1 2.4 3.6 1.7 3 2.5 4.6l31.2 54.2v-54.7c0-3.6.7-6.2 2-8s3.1-2.7 5.4-2.7 4.2.9 5.5 2.7 2 4.4 2 8zm74.2 8.5c-1.3 1.4-3.2 2-5.8 2h-40.8c-3.5 0-6.1-.9-7.6-2.7s-2.3-4.7-2.3-8.7v-69.1c0-2.7.3-4.9 1-6.6s1.8-2.9 3.2-3.7c1.5-.8 3.4-1.2 5.6-1.2h39.5c2.6 0 4.5.7 5.8 2s1.9 3 1.9 5.2-.6 3.9-1.9 5.2-3.2 2-5.8 2h-33v22.6h32c2.5 0 4.3.6 5.5 1.9s1.8 3 1.8 5.1-.6 3.8-1.8 5.1-3.1 2-5.6 2h-31.9v26.2h34.5c2.5 0 4.5.7 5.8 2 1.3 1.4 1.9 3.2 1.9 5.4-.1 2.1-.7 3.9-2 5.3z"/></svg>