<svg height="512" viewBox="0 0 24 24" width="512" xmlns="http://www.w3.org/2000/svg"><g id="_01" data-name="01"><path d="m13.2 5.98374h-6.39995a6.07578 6.07578 0 0 0 -.75.04c-2.68994.23-4.04 1.82-4.04 4.75v4c0 4 1.6001 4.79 4.79 4.79h.39995a.923.923 0 0 1 .64014.32l1.20019 1.6a1.13152 1.13152 0 0 0 1.91993 0l1.1997-1.6a.80525.80525 0 0 1 .64014-.32h.3999c2.93018 0 4.52-1.34 4.75-4.04a6.10578 6.10578 0 0 0 .04-.75v-4q0-4.78502-4.79-4.79zm-6.69385 8h-.00493a.99951.99951 0 1 1 .00488 0zm3.498 0h-.00488a.99951.99951 0 1 1 .00488 0zm3.49707 0h-.00488a1.00049 1.00049 0 1 1 .00488 0zm8.48877-7.21v4q0 2.99295-1.85748 4.10614a.43828.43828 0 0 1 -.65082-.41089l.0083-3.69525c0-4-2.29-6.29-6.29-6.29l-6.09137.00891a.4385.4385 0 0 1 -.40973-.653q1.12583-1.85276 4.10114-1.856h6.4q4.78497.00009 4.78997 4.79007z"/></g></svg>