<svg id="Layer_1" enable-background="new 0 0 100 100" height="512" viewBox="0 0 100 100" width="512" xmlns="http://www.w3.org/2000/svg"><g id="_x31_2.Viber"><path id="Icon_36_" d="m58 10h-16c-15.4 0-28 12.6-28 28v12c0 10.8 6.3 20.7 16 25.3v13.4c0 1.2 1.5 1.8 2.3.9l11.6-11.6h14.1c15.4 0 28-12.6 28-28v-12c0-15.4-12.6-28-28-28zm10.5 52.5-4.1 4c-4.3 4.2-15.4-.6-25.2-10.6s-14.1-21.2-10-25.4l4-4c1.5-1.5 4-1.4 5.7.1l5.8 6c2.1 2.1 1.2 5.7-1.5 6.5-1.9.6-3.2 2.7-2.6 4.6 1 4.4 6.6 10 10.8 11.1 1.9.4 4-.6 4.7-2.5.9-2.7 4.5-3.5 6.5-1.4l5.8 6c1.6 1.4 1.6 3.9.1 5.6zm-14.9-33.5c-.4 0-.8 0-1.2.1-.7.1-1.4-.5-1.5-1.2s.5-1.4 1.2-1.5c.5-.1 1-.1 1.5-.1 7.3 0 13.3 6 13.3 13.3 0 .5 0 1-.1 1.5-.1.7-.8 1.3-1.5 1.2s-1.3-.8-1.2-1.5c0-.4.1-.8.1-1.2.1-5.8-4.7-10.6-10.6-10.6zm8 10.7c0 .7-.6 1.3-1.3 1.3s-1.3-.6-1.3-1.3c0-2.9-2.4-5.3-5.3-5.3-.7 0-1.3-.6-1.3-1.3s.6-1.3 1.3-1.3c4.3-.1 7.9 3.5 7.9 7.9zm10.2 4.3c-.2.7-.9 1.2-1.7 1-.7-.2-1.1-.9-.9-1.6.3-1.2.4-2.4.4-3.7 0-8.8-7.2-16-16-16-.4 0-.8 0-1.2 0-.7 0-1.4-.5-1.4-1.2s.5-1.4 1.2-1.4c.5 0 1-.1 1.4-.1 10.3 0 18.7 8.4 18.7 18.7 0 1.4-.2 2.9-.5 4.3z"/></g></svg>