<svg id="Line" viewBox="0 0 64 64" xmlns="http://www.w3.org/2000/svg"><path d="m23.794 60.5h16.4121a7.61968 7.61968 0 0 0 7.59961-7.1709l1.99317-34.25586a1.50882 1.50882 0 0 0 -1.49707-1.58691h-32.60357a1.49982 1.49982 0 0 0 -1.49707 1.58691l1.99317 34.25586a7.61968 7.61968 0 0 0 7.59966 7.1709zm22.918-40.01367-1.90048 32.66894a4.61773 4.61773 0 0 1 -4.60547 4.34473h-16.41205a4.61773 4.61773 0 0 1 -4.60547-4.34473l-1.90044-32.66894z"/><path d="m35.751 3.5h-7.502a5.25762 5.25762 0 0 0 -5.252 5.251v2.25195h-11.00384a1.50017 1.50017 0 0 0 .00007 3h40.01361a1.5 1.5 0 0 0 0-3h-11.00391v-2.25195a5.25762 5.25762 0 0 0 -5.25193-5.251zm2.252 7.50293h-12.00593v-2.25193a2.25372 2.25372 0 0 1 2.25193-2.251h7.502a2.25372 2.25372 0 0 1 2.252 2.251z"/><path d="m27.169 51.60742a1.50127 1.50127 0 0 0 1.501-1.52929l-.38672-19.918a1.54491 1.54491 0 0 0 -1.52929-1.47071 1.50131 1.50131 0 0 0 -1.47071 1.5293l.38672 19.918a1.50048 1.50048 0 0 0 1.499 1.4707z"/><path d="m36.80078 51.60742a1.50159 1.50159 0 0 0 1.5293-1.4707l.38672-19.918a1.50029 1.50029 0 1 0 -3-.05859l-.38672 19.918a1.50129 1.50129 0 0 0 1.4707 1.52929z"/></svg>